<svg aria-hidden="true" style="width:0;height:0;position:absolute;overflow:hidden" xmlns="http://www.w3.org/2000/svg"><defs><symbol id="icon-euro_symbol" viewBox="0 0 24 24"><path d="M15 18.516q2.391 0 4.219-1.594L21 18.703Q18.469 21 15 21q-2.906 0-5.227-1.688t-3.258-4.313H2.999v-2.016h3.047q-.047-.281-.047-.984t.047-.984H2.999V8.999h3.516q.938-2.625 3.258-4.313T15 2.998q1.406 0 3.188.68t2.813 1.617L19.22 7.076q-1.828-1.594-4.219-1.594-1.641 0-3.328 1.031T9.235 8.997h5.766v2.016H8.579q-.094.656-.094.984t.094.984h6.422v2.016H9.235q.75 1.453 2.438 2.484t3.328 1.031z"/></symbol><symbol id="icon-time" viewBox="0 0 32 32"><path d="M16 3.5c-7.181 0-13 5.82-13 13s5.819 13 13 13c7.179 0 13-5.82 13-13s-5.82-13-13-13zm-.105 23.527c-5.799 0-10.5-4.701-10.5-10.5s4.701-10.5 10.5-10.5c5.798 0 10.5 4.701 10.5 10.5s-4.702 10.5-10.5 10.5zm3.035-9.896h-2.98v-5.032a.99.99 0 0 0-1.979 0v6.021c0 .547.443.989.99.989h3.969a.989.989 0 1 0 0-1.978z"/></symbol><symbol id="icon-sun" viewBox="0 0 32 32"><path d="M16 9c-3.859 0-7 3.141-7 7s3.141 7 7 7 7-3.141 7-7-3.141-7-7-7zm0 12c-2.762 0-5-2.238-5-5s2.238-5 5-5 5 2.238 5 5-2.238 5-5 5zm0-14a1 1 0 0 0 1-1V4a1 1 0 0 0-2 0v2a1 1 0 0 0 1 1zm0 18a1 1 0 0 0-1 1v2a1 1 0 0 0 2 0v-2a1 1 0 0 0-1-1zm7.777-15.365 1.414-1.414a.999.999 0 1 0-1.414-1.414l-1.414 1.414a.999.999 0 1 0 1.414 1.414zM8.223 22.365l-1.414 1.414a.999.999 0 1 0 1.414 1.414l1.414-1.414a.999.999 0 1 0-1.414-1.414zM7 16a1 1 0 0 0-1-1H4a1 1 0 0 0 0 2h2a1 1 0 0 0 1-1zm21-1h-2a1 1 0 0 0 0 2h2a1 1 0 0 0 0-2zM8.221 9.635a.999.999 0 1 0 1.414-1.414L8.221 6.807a.999.999 0 1 0-1.414 1.414l1.414 1.414zm15.558 12.728a.999.999 0 1 0-1.414 1.414l1.414 1.414a.999.999 0 1 0 1.414-1.414l-1.414-1.414z"/></symbol><symbol id="icon-wind" viewBox="0 0 32 32"><path d="M26.938 12c-1.656 0-3 1.344-3 3 0 .353.073.685.184 1H4.938a1 1 0 0 0 0 2h22a3.001 3.001 0 0 0 0-6zm-22 2h12a3.001 3.001 0 0 0 0-6c-1.656 0-3 1.344-3 3 0 .353.073.685.184 1H4.938a1 1 0 0 0 0 2zm16 6c-.059 0-.115.013-.174.018-.039-.003-.072-.018-.111-.018H5.225c-.711 0-1.287.448-1.287 1s.576 1 1.287 1h12.897a2.996 2.996 0 0 0-.184 1 3.001 3.001 0 0 0 6 0c0-1.656-1.344-3-3-3z"/></symbol><symbol id="icon-cloud" viewBox="0 0 32 32"><path d="M25 10c-.332 0-.66.023-.987.07C22.146 7.526 19.199 6 16 6s-6.145 1.526-8.013 4.07A6.918 6.918 0 0 0 7 10c-3.859 0-7 3.141-7 7s3.141 7 7 7c.856 0 1.693-.156 2.482-.458A9.906 9.906 0 0 0 16 26a9.9 9.9 0 0 0 6.518-2.458A6.926 6.926 0 0 0 25 24c3.859 0 7-3.141 7-7s-3.141-7-7-7zm0 12a4.97 4.97 0 0 1-2.871-.917C20.662 22.851 18.477 24 16 24s-4.662-1.148-6.129-2.917A4.968 4.968 0 0 1 7 22c-2.762 0-5-2.238-5-5s2.238-5 5-5c.676 0 1.316.138 1.902.38C10.229 9.792 12.893 8 16 8s5.771 1.792 7.096 4.38A4.983 4.983 0 0 1 25 12c2.762 0 5 2.238 5 5s-2.238 5-5 5z"/></symbol><symbol id="icon-thermometer" viewBox="0 0 32 32"><path d="M18 22.555V4.183c0-1.206-.896-2.182-2-2.182s-2 .977-2 2.182v18.372c-1.19.693-2 1.969-2 3.445 0 2.208 1.792 4 4 4s4-1.792 4-4a3.98 3.98 0 0 0-2-3.445z"/></symbol><symbol id="icon-droplet" viewBox="0 0 32 32"><path d="M27.02 14.786C24.965 9.054 20.61 3.906 16 0 11.39 3.907 7.035 9.054 4.98 14.786c-1.271 3.545-1.396 7.393.393 10.794C7.431 29.491 11.58 32 15.999 32s8.569-2.509 10.626-6.42c1.79-3.401 1.664-7.249.393-10.794zm-3.934 8.931C21.717 26.319 18.936 28 16 28a8.043 8.043 0 0 1-4.753-1.583c.414.054.832.083 1.254.083 3.67 0 7.146-2.1 8.856-5.351 1.402-2.665 1.281-5.433.746-7.636.455.88.841 1.756 1.151 2.623.706 1.971 1.251 4.886-.168 7.581z"/></symbol><symbol id="icon-location2" viewBox="0 0 32 32"><path d="M16 0C10.477 0 6 4.477 6 10c0 10 10 22 10 22s10-12 10-22c0-5.523-4.477-10-10-10zm0 16.125a6.125 6.125 0 1 1 0-12.25 6.125 6.125 0 0 1 0 12.25zM12.125 10a3.875 3.875 0 1 1 7.75 0 3.875 3.875 0 0 1-7.75 0z"/></symbol><symbol id="icon-humidity" viewBox="0 0 20 20"><path fill-rule="evenodd" d="M11.743 17.912a4.182 4.182 0 0 1-2.928-1.182 3.972 3.972 0 0 1-.614-4.962.743.743 0 0 1 .646-.349c.234 0 .476.095.66.275l4.467 4.355c.385.376.39.998-.076 1.275a4.216 4.216 0 0 1-2.155.588M11.855 4c.316 0 .61.14.828.395.171.2.36.416.562.647 1.857 2.126 4.965 5.684 4.965 8.73 0 3.416-2.85 6.195-6.353 6.195-3.505 0-6.357-2.78-6.357-6.195 0-3.082 2.921-6.406 4.854-8.605.242-.275.47-.535.673-.772A1.08 1.08 0 0 1 11.855 4"/></symbol><symbol id="icon-compass" viewBox="0 0 32 32"><path d="M17 32a1 1 0 0 1-1-1V16H1a1 1 0 0 1-.423-1.906l30-14a1 1 0 0 1 1.329 1.329l-14 30A1 1 0 0 1 17 32zM5.508 14H17a1 1 0 0 1 1 1v11.492L28.931 3.069 5.508 14z"/></symbol><symbol id="icon-sun1" viewBox="0 0 32 32"><path d="M16 26a2 2 0 0 1 2 2v2a2 2 0 1 1-4 0v-2a2 2 0 0 1 2-2zm0-20a2 2 0 0 1-2-2V2a2 2 0 1 1 4 0v2a2 2 0 0 1-2 2zm14 8a2 2 0 1 1 0 4h-2a2 2 0 1 1 0-4h2zM6 16a2 2 0 0 1-2 2H2a2 2 0 1 1 0-4h2a2 2 0 0 1 2 2zm19.899 7.071 1.414 1.414a2 2 0 1 1-2.828 2.828l-1.414-1.414a2 2 0 1 1 2.828-2.828zM6.101 8.929 4.687 7.515a2 2 0 1 1 2.828-2.828l1.414 1.414a2 2 0 1 1-2.828 2.828zm19.798 0a2 2 0 1 1-2.828-2.828l1.414-1.414a2 2 0 1 1 2.828 2.828l-1.414 1.414zM6.101 23.071a2 2 0 1 1 2.828 2.828l-1.414 1.414a2 2 0 1 1-2.828-2.828l1.414-1.414zM16 8a8 8 0 1 0 0 16 8 8 0 0 0 0-16zm0 13a5 5 0 1 1 .001-10.001A5 5 0 0 1 16 21z"/></symbol><symbol id="icon-eye" viewBox="0 0 32 32"><path d="M16 6C9.021 6 2.972 10.064 0 16c2.972 5.936 9.021 10 16 10s13.027-4.064 16-10c-2.972-5.936-9.021-10-16-10zm7.889 5.303A15.212 15.212 0 0 1 28.559 16a15.223 15.223 0 0 1-4.67 4.697C21.527 22.204 18.799 23 16 23s-5.527-.796-7.889-2.303A15.212 15.212 0 0 1 3.441 16a15.223 15.223 0 0 1 5.041-4.925 8 8 0 1 0 15.036 0c.124.074.248.15.371.228zM16 13a3 3 0 1 1-6 0 3 3 0 0 1 6 0z"/></symbol><symbol id="icon-pressure" viewBox="0 0 24 24"><path d="m8.462 18.293-.29-.002c-.6-.004-1.043-.007-1.259-.007-1.119 0-1.182-1.015-.34-1.734l.196-.164.508-.425 1.543-1.292c1.014-.846 1.74-1.45 2.073-1.723.735-.601 1.305-.596 2.033.022.387.329.959.805 2.207 1.841a377.936 377.936 0 0 1 2.18 1.816c.796.67.742 1.66-.295 1.66h-2.382v1.77c0 .83-.393 1.223-1.258 1.223h-2.994c-.809 0-1.258-.42-1.258-1.207v-1.773l-.664-.005zm0-12.807-.29.002c-.6.004-1.043.006-1.259.006-1.119 0-1.182 1.016-.34 1.734l.196.164.508.426 1.543 1.29a348.68 348.68 0 0 0 2.073 1.724c.735.601 1.305.596 2.033-.022.387-.328.959-.805 2.207-1.84a377.937 377.937 0 0 0 2.18-1.817c.796-.67.742-1.659-.295-1.659h-2.382v-1.77c0-.832-.393-1.224-1.258-1.224h-2.994c-.809 0-1.258.42-1.258 1.207V5.48l-.664.005z"/></symbol><symbol id="icon-opacity" viewBox="0 0 24 24"><path d="M6 14.016h12q0-2.578-1.781-4.359L12 5.251 7.781 9.61Q6 11.391 6 14.016zm11.672-6q2.344 2.344 2.344 5.625 0 3.328-2.344 5.672-.984.984-2.648 1.664t-3.023.68-3.023-.68-2.648-1.664q-2.344-2.344-2.344-5.672 0-1.359.68-3T6.33 8.016l5.672-5.672z"/></symbol><symbol id="icon-cloudy" viewBox="0 0 32 32"><path d="M32 15a5.578 5.578 0 0 0-6.02-5.554A7.644 7.644 0 0 0 20 6.572a7.642 7.642 0 0 0-5.98 2.874A5.578 5.578 0 0 0 8.001 15c0 .322.043.631.094.94-.034.044-.074.085-.107.13a6.918 6.918 0 0 0-.987-.07c-3.859 0-7 3.141-7 7s3.141 7 7 7c.856 0 1.693-.156 2.482-.458A9.906 9.906 0 0 0 16.001 32a9.9 9.9 0 0 0 6.518-2.458 6.926 6.926 0 0 0 2.482.458c3.859 0 7-3.141 7-7 0-1.605-.565-3.068-1.479-4.25.911-.994 1.479-2.302 1.479-3.75zm-7 13a4.97 4.97 0 0 1-2.871-.917C20.662 28.851 18.477 30 16 30s-4.662-1.148-6.129-2.917A4.968 4.968 0 0 1 7 28c-2.762 0-5-2.238-5-5s2.238-5 5-5c.676 0 1.316.137 1.902.379.035-.066.078-.125.113-.189a8.128 8.128 0 0 1 1.292-1.753c1.443-1.495 3.448-2.438 5.693-2.438 3.107 0 5.771 1.792 7.096 4.379a5.07 5.07 0 0 1 1.117-.301l.787-.078c.771 0 1.492.19 2.145.5a4.99 4.99 0 0 1 1.79 1.449A4.96 4.96 0 0 1 30 22.999a5 5 0 0 1-5 5zm4.098-10.648a6.934 6.934 0 0 0-5.085-1.282A9.915 9.915 0 0 0 16 12c-2.133 0-4.145.69-5.809 1.896a3.56 3.56 0 0 1 3.379-2.467c.484 0 .941.098 1.359.271.949-1.848 2.852-3.126 5.07-3.126s4.122 1.279 5.068 3.126a3.57 3.57 0 0 1 4.932 3.301c0 .905-.348 1.721-.902 2.351z"/></symbol><symbol id="icon-calendar" viewBox="0 0 32 32"><path d="M10 12h4v4h-4zm6 0h4v4h-4zm6 0h4v4h-4zM4 24h4v4H4zm6 0h4v4h-4zm6 0h4v4h-4zm-6-6h4v4h-4zm6 0h4v4h-4zm6 0h4v4h-4zM4 18h4v4H4zM26 0v2h-4V0H8v2H4V0H0v32h30V0h-4zm2 30H2V8h26v22z"/></symbol><symbol id="icon-sunrise1" viewBox="0 0 32 32"><path d="M11.101 18a5.002 5.002 0 0 1 9.799 0h2c-.49-3.383-3.38-6-6.898-6-3.517 0-6.409 2.617-6.898 6h1.999zm4.9-8a1 1 0 0 0 1-1V7a1 1 0 0 0-2 0v2a1 1 0 0 0 1 1zm9.191-.193a.999.999 0 0 0-1.414 0l-1.414 1.414a.999.999 0 1 0 1.414 1.414l1.414-1.414a.999.999 0 0 0 0-1.414zM9.636 11.221 8.222 9.807a.999.999 0 1 0-1.414 1.414l1.414 1.414a.999.999 0 1 0 1.414-1.414zM22.001 20h-12a1 1 0 0 0 0 2h12a1 1 0 0 0 0-2zm-2 4h-8a1 1 0 0 0 0 2h8a1 1 0 0 0 0-2z"/></symbol><symbol id="icon-cross" viewBox="0 0 32 32"><path d="M31.708 25.708 22 16l9.708-9.708a1 1 0 0 0 0-1.414L27.122.292a1 1 0 0 0-1.414-.001L16 9.999 6.292.291a.998.998 0 0 0-1.414.001L.292 4.878a1 1 0 0 0 0 1.414L10 16 .292 25.708a.999.999 0 0 0 0 1.414l4.586 4.586a1 1 0 0 0 1.414 0L16 22l9.708 9.708a1 1 0 0 0 1.414 0l4.586-4.586a.999.999 0 0 0 0-1.414z"/></symbol><symbol id="icon-EUR" viewBox="0 0 24 24"><path fill="#41479b" style="fill:var(--color1,#41479b)" d="M23.586 19.863H.414A.414.414 0 0 1 0 19.449V4.552c0-.229.185-.414.414-.414h23.172c.228 0 .414.185.414.414v14.897a.414.414 0 0 1-.414.414z"/><path fill="#ffe15a" style="fill:var(--color2,#ffe15a)" d="m12.168 5.939.166.497.524.004a.07.07 0 0 1 .041.128l-.422.312.158.5c.021.065-.053.118-.108.079l-.427-.305-.427.305c-.055.039-.129-.014-.108-.079l.158-.5-.422-.312c-.055-.04-.027-.127.041-.128l.524-.004.166-.497c.021-.064.113-.064.134 0zM12.168 16.621l.166.498.524.004c.068 0 .096.087.041.128l-.422.312.158.5c.021.065-.053.118-.108.079l-.427-.305-.427.305c-.055.039-.129-.014-.108-.079l.158-.5-.422-.312c-.055-.04-.027-.127.041-.128l.524-.004.166-.498c.021-.064.113-.064.134 0zM17.508 11.279l.166.498.524.004c.068.001.096.087.042.127l-.422.312.158.5c.021.065-.053.118-.108.079l-.427-.305-.427.305c-.055.039-.129-.014-.108-.079l.158-.5-.422-.312c-.055-.04-.027-.127.041-.127l.524-.004.166-.498c.021-.064.113-.064.134 0zM6.827 11.279l.166.498.524.004c.068.001.096.087.041.127l-.422.312.158.5c.02.065-.053.118-.108.079l-.427-.305-.427.305c-.055.039-.129-.014-.108-.079l.158-.5-.422-.312c-.055-.04-.026-.127.041-.127l.524-.004.166-.498c.021-.064.113-.064.134 0zM7.629 8.49l.166.497.524.004c.068.001.096.087.041.127l-.422.312.158.5c.02.065-.053.118-.108.079l-.427-.305-.427.305c-.055.039-.129-.014-.108-.079l.158-.5-.422-.312c-.055-.04-.026-.127.041-.127l.524-.004.166-.497c.021-.064.113-.064.134 0zM16.879 13.832l.166.498.524.004c.068 0 .096.087.042.128l-.422.312.158.5c.021.065-.053.118-.108.079l-.427-.305-.427.305c-.055.039-.129-.014-.108-.079l.158-.5-.422-.312c-.055-.04-.027-.127.041-.128l.524-.004.166-.498c.021-.064.113-.064.134 0zM14.924 6.537l.166.497.524.004a.07.07 0 0 1 .041.128l-.422.312.158.5c.021.065-.053.118-.108.079l-.427-.305-.427.305c-.055.039-.129-.014-.108-.079l.158-.5-.422-.312c-.055-.04-.027-.127.042-.128l.524-.004.166-.497c.021-.064.113-.064.134 0zM9.584 15.787l.166.498.524.004a.071.071 0 0 1 .042.128l-.422.312.158.5c.021.065-.053.118-.108.079l-.427-.305-.427.305c-.055.039-.129-.014-.108-.079l.158-.5-.422-.312c-.055-.04-.026-.127.041-.128l.524-.004.166-.498c.021-.064.113-.064.134 0zM16.745 8.49l-.166.497-.524.004c-.068.001-.096.087-.041.127l.422.312-.158.5c-.021.065.053.118.108.079l.427-.305.427.305c.055.039.129-.014.108-.079l-.158-.5.422-.312a.07.07 0 0 0-.042-.127l-.524-.004-.166-.497c-.021-.064-.113-.064-.134 0zM7.495 13.832l-.166.498-.524.004c-.068 0-.096.087-.041.128l.422.312-.158.5c-.02.065.053.118.108.079l.427-.305.427.305c.055.039.129-.014.108-.079l-.158-.5.422-.312c.055-.04.026-.127-.041-.128l-.524-.004-.166-.498c-.022-.064-.113-.064-.134 0zM9.45 6.537l-.166.497-.524.004a.07.07 0 0 0-.041.128l.422.312-.158.5c-.02.065.053.118.108.079l.427-.305.427.305c.055.039.129-.014.108-.079l-.158-.5.422-.312c.055-.04.026-.127-.042-.128l-.524-.004-.166-.497c-.022-.064-.113-.064-.134 0zM14.79 15.787l-.166.498-.524.004a.071.071 0 0 0-.042.128l.422.312-.158.5c-.021.065.053.118.108.079l.427-.305.427.305c.055.039.129-.014.108-.079l-.158-.5.422-.312c.055-.04.027-.127-.041-.128l-.524-.004-.166-.498c-.021-.064-.113-.064-.134 0z"/></symbol><symbol id="icon-USD" viewBox="0 0 24 24"><path fill="#f5f5f5" style="fill:var(--color3,#f5f5f5)" d="M23.586 19.863H.414A.414.414 0 0 1 0 19.449V4.552c0-.229.185-.414.414-.414h23.172c.228 0 .414.185.414.414v14.897a.414.414 0 0 1-.414.414z"/><path fill="#ff4b55" style="fill:var(--color4,#ff4b55)" d="M24 5.348H0v-.796c0-.229.185-.414.414-.414h23.172c.228 0 .414.185.414.414v.796zM24 8.977H0v1.21h24v-1.21zM24 6.559H0v1.21h24v-1.21zM24 12.606H.414A.414.414 0 0 1 0 12.192v-.796h24v1.21zM24 16.234H0v1.209h24v-1.209zM23.586 19.862H.414A.414.414 0 0 1 0 19.448v-.796h24v.796a.414.414 0 0 1-.414.414zM24 13.815H0v1.209h24v-1.209z"/><path fill="#41479b" style="fill:var(--color1,#41479b)" d="M10.759 4.139H.414A.414.414 0 0 0 0 4.553v7.639c0 .228.185.414.414.414h10.345a.414.414 0 0 0 .414-.414V4.553a.414.414 0 0 0-.414-.414z"/><path fill="#f5f5f5" style="fill:var(--color3,#f5f5f5)" d="m1.162 5.087.092.275.29.002c.037 0 .053.048.023.07l-.233.172.087.276a.039.039 0 0 1-.06.043l-.236-.168-.236.168a.039.039 0 0 1-.06-.043l.087-.276-.233-.172a.039.039 0 0 1 .023-.07l.29-.002.092-.275a.039.039 0 0 1 .074 0zM1.162 6.525l.092.275.29.002c.037 0 .053.048.023.07l-.233.172.087.276a.039.039 0 0 1-.06.043l-.236-.168-.236.168a.039.039 0 0 1-.06-.043l.087-.276-.233-.172a.039.039 0 0 1 .023-.07l.29-.002.092-.275a.039.039 0 0 1 .074 0zM1.162 7.96l.092.275.29.002c.037 0 .053.048.023.07l-.233.172.087.276a.039.039 0 0 1-.06.043l-.236-.168-.236.168a.039.039 0 0 1-.06-.043l.087-.276-.233-.172a.039.039 0 0 1 .023-.07l.29-.002.092-.275a.039.039 0 0 1 .074 0zM1.162 9.398l.092.275.29.002c.037 0 .053.048.023.07l-.233.172.087.276a.039.039 0 0 1-.06.043l-.236-.168-.236.168a.039.039 0 0 1-.06-.043l.087-.276-.233-.172a.039.039 0 0 1 .023-.07l.29-.002.092-.275a.039.039 0 0 1 .074 0zM1.162 10.835l.092.275.29.002c.037 0 .053.048.023.07l-.233.172.087.276a.039.039 0 0 1-.06.043l-.236-.168-.236.168a.039.039 0 0 1-.06-.043l.087-.276-.233-.172a.039.039 0 0 1 .023-.07l.29-.002.092-.275a.039.039 0 0 1 .074 0zM2.277 5.792l.092.275.29.002c.037 0 .053.048.023.07l-.233.172.087.276a.039.039 0 0 1-.06.043l-.236-.168-.236.168a.039.039 0 0 1-.06-.043l.087-.276-.233-.172a.039.039 0 0 1 .023-.07l.29-.002.092-.275a.039.039 0 0 1 .074 0zM2.277 7.228l.092.275.29.002c.037 0 .053.048.023.07l-.233.172.087.276a.039.039 0 0 1-.06.043l-.236-.168-.236.168a.039.039 0 0 1-.06-.043l.087-.276-.233-.172a.039.039 0 0 1 .023-.07l.29-.002.092-.275a.039.039 0 0 1 .074 0zM2.277 8.665l.092.275.29.002c.037 0 .053.048.023.07l-.233.172.087.276a.039.039 0 0 1-.06.043l-.236-.168-.236.168a.039.039 0 0 1-.06-.043l.087-.276-.233-.172a.039.039 0 0 1 .023-.07l.29-.002.092-.275a.039.039 0 0 1 .074 0zM2.277 10.103l.092.275.29.002c.037 0 .053.048.023.07l-.233.172.087.276a.039.039 0 0 1-.06.043l-.236-.168-.236.168a.039.039 0 0 1-.06-.043l.087-.276-.233-.172a.039.039 0 0 1 .023-.07l.29-.002.092-.275a.039.039 0 0 1 .074 0zM3.392 5.087l.092.275.29.002c.037 0 .053.048.023.07l-.233.172.087.276a.039.039 0 0 1-.06.043l-.236-.168-.236.168a.039.039 0 0 1-.06-.043l.087-.276-.233-.172a.039.039 0 0 1 .023-.07l.29-.002.092-.275a.039.039 0 0 1 .074 0zM3.392 6.525l.092.275.29.002c.037 0 .053.048.023.07l-.233.172.087.276a.039.039 0 0 1-.06.043l-.236-.168-.236.168a.039.039 0 0 1-.06-.043l.087-.276-.233-.172a.039.039 0 0 1 .023-.07l.29-.002.092-.275a.039.039 0 0 1 .074 0zM3.392 7.96l.092.275.29.002c.037 0 .053.048.023.07l-.233.172.087.276a.039.039 0 0 1-.06.043l-.236-.168-.236.168a.039.039 0 0 1-.06-.043l.087-.276-.233-.172a.039.039 0 0 1 .023-.07l.29-.002.092-.275a.039.039 0 0 1 .074 0zM3.392 9.398l.092.275.29.002c.037 0 .053.048.023.07l-.233.172.087.276a.04.04 0 0 1-.06.044l-.236-.168-.236.168c-.031.022-.071-.008-.06-.044l.087-.276-.233-.172a.039.039 0 0 1 .023-.07l.29-.002.092-.275a.039.039 0 0 1 .074 0zM3.392 10.835l.092.275.29.002c.037 0 .053.048.023.07l-.233.172.087.276a.039.039 0 0 1-.06.043l-.236-.168-.236.168a.039.039 0 0 1-.06-.043l.087-.276-.233-.172a.039.039 0 0 1 .023-.07l.29-.002.092-.275a.039.039 0 0 1 .074 0zM4.508 5.792l.092.275.29.002c.038 0 .053.048.023.07l-.233.172.087.276a.039.039 0 0 1-.06.043l-.236-.168-.236.168a.039.039 0 0 1-.06-.043l.087-.276-.233-.172a.039.039 0 0 1 .023-.07l.29-.002.092-.275a.039.039 0 0 1 .074 0zM4.508 7.228l.092.275.29.002c.038 0 .053.048.023.07l-.233.172.087.276a.039.039 0 0 1-.06.043l-.236-.168-.236.168a.039.039 0 0 1-.06-.043l.087-.276-.233-.172a.039.039 0 0 1 .023-.07l.29-.002.092-.275a.039.039 0 0 1 .074 0zM4.508 8.665l.092.275.29.002c.038 0 .053.048.023.07l-.233.172.087.276a.039.039 0 0 1-.06.043l-.236-.168-.236.168a.039.039 0 0 1-.06-.043l.087-.276-.233-.172a.039.039 0 0 1 .023-.07l.29-.002.092-.275a.039.039 0 0 1 .074 0zM4.508 10.103l.092.275.29.002c.038 0 .053.048.023.07l-.233.172.087.276a.039.039 0 0 1-.06.043l-.236-.168-.236.168a.039.039 0 0 1-.06-.043l.087-.276-.233-.172a.039.039 0 0 1 .023-.07l.29-.002.092-.275a.039.039 0 0 1 .074 0zM5.623 5.087l.092.275.29.002c.038 0 .053.048.023.07l-.233.172.087.276a.039.039 0 0 1-.06.043l-.236-.168-.236.168a.039.039 0 0 1-.06-.043l.087-.276-.233-.172a.039.039 0 0 1 .023-.07l.29-.002.092-.275a.039.039 0 0 1 .074 0zM5.623 6.525l.092.275.29.002c.038 0 .053.048.023.07l-.233.172.087.276a.039.039 0 0 1-.06.043l-.236-.168-.236.168a.039.039 0 0 1-.06-.043l.087-.276-.233-.172a.039.039 0 0 1 .023-.07l.29-.002.092-.275a.039.039 0 0 1 .074 0zM5.623 7.96l.092.275.29.002c.038 0 .053.048.023.07l-.233.172.087.276a.039.039 0 0 1-.06.043l-.236-.168-.236.168a.039.039 0 0 1-.06-.043l.087-.276-.233-.172a.039.039 0 0 1 .023-.07l.29-.002.092-.275a.039.039 0 0 1 .074 0zM5.623 9.398l.092.275.29.002c.038 0 .053.048.023.07l-.233.172.087.276a.04.04 0 0 1-.06.044l-.236-.168-.236.168c-.031.022-.071-.008-.06-.044l.087-.276-.233-.172a.039.039 0 0 1 .023-.07l.29-.002.092-.275a.039.039 0 0 1 .074 0zM5.623 10.835l.092.275.29.002c.038 0 .053.048.023.07l-.233.172.087.276a.039.039 0 0 1-.06.043l-.236-.168-.236.168a.039.039 0 0 1-.06-.043l.087-.276-.233-.172a.039.039 0 0 1 .023-.07l.29-.002.092-.275a.039.039 0 0 1 .074 0zM6.738 5.792l.092.275.29.002c.038 0 .053.048.023.07l-.233.172.087.276a.039.039 0 0 1-.06.043l-.236-.168-.236.168a.039.039 0 0 1-.06-.043l.087-.276-.233-.172a.039.039 0 0 1 .023-.07l.29-.002.092-.275a.039.039 0 0 1 .074 0zM6.738 7.228l.092.275.29.002c.038 0 .053.048.023.07l-.233.172.087.276a.039.039 0 0 1-.06.043l-.236-.168-.236.168a.039.039 0 0 1-.06-.043l.087-.276-.233-.172a.039.039 0 0 1 .023-.07l.29-.002.092-.275a.039.039 0 0 1 .074 0zM6.738 8.665l.092.275.29.002c.038 0 .053.048.023.07l-.233.172.087.276a.039.039 0 0 1-.06.043l-.236-.168-.236.168a.039.039 0 0 1-.06-.043l.087-.276-.233-.172a.039.039 0 0 1 .023-.07l.29-.002.092-.275a.039.039 0 0 1 .074 0zM6.738 10.103l.092.275.29.002c.038 0 .053.048.023.07l-.233.172.087.276a.039.039 0 0 1-.06.043l-.236-.168-.236.168a.039.039 0 0 1-.06-.043l.087-.276-.233-.172a.039.039 0 0 1 .023-.07l.29-.002.092-.275a.039.039 0 0 1 .074 0zM7.854 5.087l.092.275.29.002c.037 0 .053.048.023.07l-.233.172.087.276a.039.039 0 0 1-.06.043l-.236-.168-.236.168a.039.039 0 0 1-.06-.043l.087-.276-.233-.172a.039.039 0 0 1 .023-.07l.29-.002.092-.275a.039.039 0 0 1 .074 0zM7.854 6.525l.092.275.29.002c.037 0 .053.048.023.07l-.233.172.087.276a.039.039 0 0 1-.06.043l-.236-.168-.236.168a.039.039 0 0 1-.06-.043l.087-.276-.233-.172a.039.039 0 0 1 .023-.07l.29-.002.092-.275a.039.039 0 0 1 .074 0zM7.854 7.96l.092.275.29.002c.037 0 .053.048.023.07l-.233.172.087.276a.039.039 0 0 1-.06.043l-.236-.168-.236.168a.039.039 0 0 1-.06-.043l.087-.276-.233-.172a.039.039 0 0 1 .023-.07l.29-.002.092-.275a.039.039 0 0 1 .074 0zM7.854 9.398l.092.275.29.002c.037 0 .053.048.023.07l-.233.172.087.276a.04.04 0 0 1-.06.044l-.236-.168-.236.168c-.031.022-.071-.008-.06-.044l.087-.276-.233-.172a.039.039 0 0 1 .023-.07l.29-.002.092-.275a.039.039 0 0 1 .074 0zM7.854 10.835l.092.275.29.002c.037 0 .053.048.023.07l-.233.172.087.276a.039.039 0 0 1-.06.043l-.236-.168-.236.168a.039.039 0 0 1-.06-.043l.087-.276-.233-.172a.039.039 0 0 1 .023-.07l.29-.002.092-.275a.039.039 0 0 1 .074 0zM8.969 5.792l.092.275.29.002c.038 0 .053.048.023.07l-.233.172.087.276a.039.039 0 0 1-.06.043l-.236-.168-.236.168a.039.039 0 0 1-.06-.043l.087-.276-.233-.172a.039.039 0 0 1 .023-.07l.29-.002.092-.275a.039.039 0 0 1 .074 0zM8.969 7.228l.092.275.29.002c.038 0 .053.048.023.07l-.233.172.087.276a.039.039 0 0 1-.06.043l-.236-.168-.236.168a.039.039 0 0 1-.06-.043l.087-.276-.233-.172a.039.039 0 0 1 .023-.07l.29-.002.092-.275a.039.039 0 0 1 .074 0zM8.969 8.665l.092.275.29.002c.038 0 .053.048.023.07l-.233.172.087.276a.039.039 0 0 1-.06.043l-.236-.168-.236.168a.039.039 0 0 1-.06-.043l.087-.276-.233-.172a.039.039 0 0 1 .023-.07l.29-.002.092-.275a.039.039 0 0 1 .074 0zM8.969 10.103l.092.275.29.002c.038 0 .053.048.023.07l-.233.172.087.276a.039.039 0 0 1-.06.043l-.236-.168-.236.168a.039.039 0 0 1-.06-.043l.087-.276-.233-.172a.039.039 0 0 1 .023-.07l.29-.002.092-.275a.039.039 0 0 1 .074 0zM10.085 5.087l.092.275.29.002c.038 0 .053.048.023.07l-.233.172.087.276a.039.039 0 0 1-.06.043l-.236-.168-.236.168a.039.039 0 0 1-.06-.043l.087-.276-.233-.172a.039.039 0 0 1 .023-.07l.29-.002.092-.275a.039.039 0 0 1 .074 0zM10.085 6.525l.092.275.29.002c.038 0 .053.048.023.07l-.233.172.087.276a.039.039 0 0 1-.06.043l-.236-.168-.236.168a.039.039 0 0 1-.06-.043l.087-.276-.233-.172a.039.039 0 0 1 .023-.07l.29-.002.092-.275a.039.039 0 0 1 .074 0zM10.085 7.96l.092.275.29.002c.038 0 .053.048.023.07l-.233.172.087.276a.039.039 0 0 1-.06.043l-.236-.168-.236.168a.039.039 0 0 1-.06-.043l.087-.276-.233-.172a.039.039 0 0 1 .023-.07l.29-.002.092-.275a.039.039 0 0 1 .074 0zM10.085 9.398l.092.275.29.002c.038 0 .053.048.023.07l-.233.172.087.276a.04.04 0 0 1-.06.044l-.236-.168-.236.168c-.031.022-.071-.008-.06-.044l.087-.276-.233-.172a.039.039 0 0 1 .023-.07l.29-.002.092-.275a.039.039 0 0 1 .074 0zM10.085 10.835l.092.275.29.002c.038 0 .053.048.023.07l-.233.172.087.276a.039.039 0 0 1-.06.043l-.236-.168-.236.168a.039.039 0 0 1-.06-.043l.087-.276-.233-.172a.039.039 0 0 1 .023-.07l.29-.002.092-.275a.039.039 0 0 1 .074 0z"/></symbol><symbol id="icon-UAH" viewBox="0 0 24 24"><path fill="#ffe15a" style="fill:var(--color1,#ffe15a)" d="M0 12h24v7.448a.414.414 0 0 1-.414.414H.414A.414.414 0 0 1 0 19.448V12z"/><path fill="#4173cd" style="fill:var(--color2,#4173cd)" d="M24 12H0V4.552c0-.229.185-.414.414-.414h23.172c.228 0 .414.185.414.414V12z"/></symbol><symbol id="icon-PLN" viewBox="0 0 32 32"><path fill="#ff4b55" style="fill:var(--color3,#ff4b55)" d="M0 16h32v9.931a.552.552 0 0 1-.552.552H.552A.552.552 0 0 1 0 25.931V16z"/><path fill="#f5f5f5" style="fill:var(--color4,#f5f5f5)" d="M32 16.001H0V6.07c0-.305.247-.552.552-.552h30.897c.305 0 .552.247.552.552v9.931z"/></symbol><symbol id="icon-RUB" viewBox="0 0 43 32"><path fill="#fff" style="fill:var(--color5,#fff)" d="M0 0h42.667v32H0z"/><path fill="#0039a6" style="fill:var(--color6,#0039a6)" d="M0 10.667h42.667V32H0z"/><path fill="#d52b1e" style="fill:var(--color7,#d52b1e)" d="M0 21.333h42.667V32H0z"/></symbol><symbol id="icon-swap_vert" viewBox="0 0 24 24"><path d="m9 3 3.984 3.984h-3v7.031H8.015V6.984h-3zm6.984 14.016h3L15 21l-3.984-3.984h3V9.985h1.969v7.031z"/></symbol><symbol id="icon-circle-right" viewBox="0 0 32 32"><path d="M16 0C7.163 0 0 7.163 0 16s7.163 16 16 16 16-7.163 16-16S24.837 0 16 0zm0 29C8.82 29 3 23.18 3 16S8.82 3 16 3s13 5.82 13 13-5.82 13-13 13z"/><path d="m11.086 22.086 2.829 2.829 8.914-8.914-8.914-8.914-2.828 2.828 6.086 6.086z"/></symbol><symbol id="icon-circle-left" viewBox="0 0 32 32"><path d="M16 32c8.837 0 16-7.163 16-16S24.837 0 16 0 0 7.163 0 16s7.163 16 16 16zm0-29c7.18 0 13 5.82 13 13s-5.82 13-13 13S3 23.18 3 16 8.82 3 16 3z"/><path d="m20.914 9.914-2.829-2.829-8.914 8.914 8.914 8.914 2.828-2.828-6.086-6.086z"/></symbol><symbol id="icon-search" viewBox="0 0 32 32"><path d="m31.008 27.231-7.58-6.447c-.784-.705-1.622-1.029-2.299-.998a11.954 11.954 0 0 0 2.87-7.787c0-6.627-5.373-12-12-12s-12 5.373-12 12 5.373 12 12 12c2.972 0 5.691-1.081 7.787-2.87-.031.677.293 1.515.998 2.299l6.447 7.58c1.104 1.226 2.907 1.33 4.007.23s.997-2.903-.23-4.007zM12 20a8 8 0 1 1 0-16 8 8 0 0 1 0 16z"/></symbol><symbol id="icon-wind-w" viewBox="0 0 22 22"><path xmlns="http://www.w3.org/2000/svg" class="st0" d="M11 21C5.5 21 1 16.5 1 11S5.5 1 11 1s10 4.5 10 10-4.5 10-10 10zm0-19.1C6 1.9 1.9 6 1.9 11S6 20.1 11 20.1s9.1-4.1 9.1-9.1S16 1.9 11 1.9z"/><path xmlns="http://www.w3.org/2000/svg" class="st0" d="m15.4 7.3-4.3 9.2-4.5-9.1L11 9.7l4.4-2.4z"/></symbol><symbol id="icon-air-sock" viewBox="0 0 32 32"><path d="M16 12.15V5.845l4 .428v5.449l-4 .429zm-3 .322-4 .429V5.097l4 .428v6.948zM23 11.4V6.594l3 .321v4.164l-3 .321zM6.5 4c-.276 0-.5.216-.5.499V28.5c0 .276.232.499.5.499.276 0 .5-.216.5-.499V4.499A.505.505 0 0 0 6.5 4zM8 4v10l19-2V6L8 4z"/></symbol><symbol id="icon-sunrise" viewBox="0 0 32 32"><path d="M7.537 22a.51.51 0 0 0-.508.5c0 .276.227.5.508.5h6.075l2.917-2.5 2.917 2.5h6.075a.51.51 0 0 0 .508-.5c0-.276-.227-.5-.508-.5h-5.492l-3.5-3-3.5 3H7.537zm14.441-2a5.5 5.5 0 1 0-10.956 0h1.005a4.5 4.5 0 1 1 8.946 0h1.005zm-5.449-10c-.276 0-.5.216-.5.495v2.009c0 .274.232.495.5.495.276 0 .5-.216.5-.495v-2.009a.502.502 0 0 0-.5-.495zm6.738 2.791a.494.494 0 0 0-.704-.003l-1.421 1.421a.504.504 0 0 0 .003.704.494.494 0 0 0 .704.003l1.421-1.421a.504.504 0 0 0-.003-.704zm2.791 6.738c0-.276-.216-.5-.495-.5h-2.009a.502.502 0 0 0-.495.5c0 .276.216.5.495.5h2.009a.502.502 0 0 0 .495-.5zM7 19.529c0 .276.216.5.495.5h2.009a.502.502 0 0 0 .495-.5c0-.276-.216-.5-.495-.5H7.495a.502.502 0 0 0-.495.5zm2.791-6.738a.494.494 0 0 0-.003.704l1.421 1.421a.504.504 0 0 0 .704-.003.494.494 0 0 0 .003-.704l-1.421-1.421a.504.504 0 0 0-.704.003z"/></symbol><symbol id="icon-sunset" viewBox="0 0 32 32"><path d="M22.007 18a5.5 5.5 0 1 0-10.956 0h1.005a4.5 4.5 0 1 1 8.946 0h1.005zM16.529 8c-.276 0-.5.216-.5.495v2.009c0 .274.232.495.5.495.276 0 .5-.216.5-.495V8.495a.502.502 0 0 0-.5-.495zm6.738 2.791a.494.494 0 0 0-.704-.003l-1.421 1.421a.504.504 0 0 0 .003.704.494.494 0 0 0 .704.003l1.421-1.421a.504.504 0 0 0-.003-.704zm2.791 6.738c0-.276-.216-.5-.495-.5h-2.009a.502.502 0 0 0-.495.5c0 .276.216.5.495.5h2.009a.502.502 0 0 0 .495-.5zM7 17.529c0 .276.216.5.495.5h2.009a.502.502 0 0 0 .495-.5c0-.276-.216-.5-.495-.5H7.495a.502.502 0 0 0-.495.5zm2.791-6.738a.494.494 0 0 0-.003.704l1.421 1.421a.504.504 0 0 0 .704-.003.494.494 0 0 0 .003-.704l-1.421-1.421a.504.504 0 0 0-.704.003zM7.537 21a.51.51 0 0 1-.508-.5c0-.276.227-.5.508-.5h6.075l2.917 2.5 2.917-2.5h6.075a.51.51 0 0 1 .508.5c0 .276-.227.5-.508.5h-5.492l-3.5 3-3.5-3H7.537z"/></symbol><symbol id="icon-umbrella" viewBox="0 0 32 32"><path d="M29.5 12c1.381 0 2.5.895 2.5 2 0-5.415-6.671-9.825-15-9.995V2.499A.505.505 0 0 0 16.5 2c-.276 0-.5.216-.5.499v1.506C7.671 4.175 1 8.585 1 14c0-1.105 1.119-2 2.5-2s2.5.895 2.5 2c0-1.105 1.119-2 2.5-2s2.5.895 2.5 2c0-1.105 1.119-2 2.5-2s2.5.895 2.5 2v14.009a1 1 0 0 1-2 0v-1.505a.508.508 0 0 0-.5-.505c-.276 0-.5.214-.5.505v1.494c0 1.105.888 2.001 2 2.001 1.105 0 2-.888 2-2v-14c0-1.105 1.119-2 2.5-2s2.5.895 2.5 2c0-1.105 1.119-2 2.5-2s2.5.895 2.5 2c0-1.105 1.119-2 2.5-2zM16 11.9c-.635-.556-1.521-.9-2.5-.9-.894 0-1.71.287-2.328.76.568-3.631 2.487-6.378 4.828-6.723v6.864zm1 0V5.036c2.341.345 4.26 3.092 4.828 6.723a3.833 3.833 0 0 0-2.328-.76c-.979 0-1.865.345-2.5.9zm-6.776-.511A3.948 3.948 0 0 0 8.5 11c-.801 0-1.539.23-2.128.618.918-2.873 3.455-5.173 6.718-6.133-1.389 1.319-2.43 3.42-2.866 5.903zm12.552 0c-.436-2.483-1.477-4.584-2.866-5.903 3.263.96 5.8 3.26 6.718 6.133a3.873 3.873 0 0 0-2.128-.618c-.627 0-1.215.141-1.724.389zm-17.403.076A3.916 3.916 0 0 0 3.5 11c-.243 0-.48.021-.71.062C3.948 8.979 6.304 7.243 9.346 6.17 7.429 7.496 6.01 9.343 5.372 11.465zM23.654 6.17c3.042 1.073 5.398 2.809 6.556 4.892A4.121 4.121 0 0 0 29.5 11c-.689 0-1.331.171-1.873.465-.638-2.122-2.057-3.969-3.974-5.295z"/></symbol><symbol id="icon-barometer" viewBox="0 0 32 32"><path d="M17.892 21.423A2.5 2.5 0 0 1 16.5 26a2.5 2.5 0 0 1-1.392-4.577L16.5 14l1.392 7.423zm11.384 2.449c.469-1.371.724-2.842.724-4.372C30 12.044 23.956 6 16.5 6S3 12.044 3 19.5c0 1.53.255 3.001.724 4.372l.958-.29a12.47 12.47 0 0 1-.681-4.081c0-6.904 5.596-12.5 12.5-12.5s12.5 5.596 12.5 12.5c0 1.429-.24 2.802-.681 4.081l.958.29zM16.5 25a1.5 1.5 0 1 0-.001-3.001A1.5 1.5 0 0 0 16.5 25zm0-17c-.276 0-.5.215-.5.49v3.019a.5.5 0 0 0 .5.49c.276 0 .5-.215.5-.49V8.49a.5.5 0 0 0-.5-.49zm6.761 2.197a.493.493 0 0 0-.693.103l-1.775 2.442a.501.501 0 0 0 .809.588l1.775-2.442a.501.501 0 0 0-.116-.691zm4.179 5.751a.492.492 0 0 0-.621-.324l-2.871.933a.5.5 0 0 0-.312.627.492.492 0 0 0 .621.324l2.871-.933a.5.5 0 0 0 .312-.627zm0 7.11a.492.492 0 0 0-.312-.627l-2.871-.933a.5.5 0 0 0-.621.324.492.492 0 0 0 .312.627l2.871.933a.5.5 0 0 0 .621-.324zm-21.88 0a.492.492 0 0 0 .621.324l2.871-.933a.5.5 0 0 0 .312-.627.492.492 0 0 0-.621-.324l-2.871.933a.5.5 0 0 0-.312.627zm0-7.11a.492.492 0 0 0 .312.627l2.871.933a.5.5 0 0 0 .621-.324.492.492 0 0 0-.312-.627l-2.871-.933a.5.5 0 0 0-.621.324zm4.179-5.751a.493.493 0 0 0-.116.691l1.775 2.442a.501.501 0 0 0 .809-.588L10.432 10.3a.501.501 0 0 0-.693-.103z"/></symbol><symbol id="icon-moonrise" viewBox="0 0 32 32"><path d="M19.566 19.682a5.504 5.504 0 0 0 1.929-3.942 4.5 4.5 0 0 1-5.741-5.741 5.501 5.501 0 0 0-2.782 10.086l.787-.689a4.503 4.503 0 0 1 .746-8.149 5.5 5.5 0 0 0 5.741 5.741 4.504 4.504 0 0 1-1.443 2.026l.763.667zM7.508 22a.51.51 0 0 0-.508.5c0 .276.227.5.508.5h6.075l2.917-2.5 2.917 2.5h6.075a.51.51 0 0 0 .508-.5c0-.276-.227-.5-.508-.5H20l-3.5-3-3.5 3H7.508z"/></symbol><symbol id="icon-moonset" viewBox="0 0 32 32"><path d="M21.337 14.831c.088-.351.142-.716.158-1.091a4.5 4.5 0 0 1-5.741-5.741 5.501 5.501 0 1 0 5.583 6.831zM11.5 13.495a4.503 4.503 0 0 1 3.005-4.246 5.5 5.5 0 0 0 5.741 5.741 4.501 4.501 0 0 1-8.746-1.495zM7.508 22A.51.51 0 0 1 7 21.5c0-.276.227-.5.508-.5h6.075l2.917 2.5 2.917-2.5h6.075a.51.51 0 0 1 .508.5c0 .276-.227.5-.508.5H20l-3.5 3-3.5-3H7.508z"/></symbol><symbol id="icon-eye3" viewBox="0 0 32 32"><path d="M16 9c9 0 13 7 13 7s-4 7-13 7-13-7-13-7 4-7 13-7zm0 1c-8 0-11.8 6-11.8 6S8 22 16 22s11.8-6 11.8-6S24 10 16 10zm0 10a4 4 0 1 1 0-8 4 4 0 0 1 0 8zm0-1a3 3 0 1 0 0-6 3 3 0 0 0 0 6zm0-2a1 1 0 1 0 0-2 1 1 0 0 0 0 2z"/></symbol><symbol id="icon-clouds" viewBox="0 0 32 32"><path d="M8.268 24h-.761a1.5 1.5 0 1 0 0 3h7.987a1.5 1.5 0 1 0 0-3H15a2 2 0 0 0-3.112-1.662A2 2 0 1 0 8.268 24zm7.569-.977c.679.093 1.27.456 1.662.977h7.498A4.004 4.004 0 0 0 29 20a4.008 4.008 0 0 0-3.042-3.884 4.5 4.5 0 0 0-7.606-3.831 6 6 0 0 0-11.251 3.817 4 4 0 0 0-1.073 7.376c.285-.207.615-.355.973-.428v-.051a3 3 0 0 1 5.306-1.919 3 3 0 0 1 3.531 1.942zM5.341 24.237A4.996 4.996 0 0 1 3 20a5.006 5.006 0 0 1 3.012-4.588 7 7 0 0 1 10.52-6.457c.36-.457.876-.784 1.468-.905v-.051a3 3 0 0 1 5.306-1.919 3 3 0 0 1 3.531 1.942A2.502 2.502 0 0 1 29 10.499c0 1.39-1.122 2.5-2.507 2.5H26.4c.371.726.586 1.546.599 2.415A4.999 4.999 0 0 1 30 19.999c0 2.756-2.238 5-4.999 5H17.95a2.497 2.497 0 0 1-2.457 3H7.506a2.502 2.502 0 0 1-2.166-3.763zM25.743 12h.751a1.5 1.5 0 1 0 0-3H26a2 2 0 0 0-3.112-1.662A2 2 0 1 0 19.268 9h-.761c-.459 0-.87.202-1.146.524.471.376.892.81 1.253 1.294a5.477 5.477 0 0 1 2.886-.817c1.708 0 3.234.778 4.243 2z"/></symbol><symbol id="icon-raindrop1" viewBox="0 0 32 32"><path d="M12 18.211C12 15.685 16 10 16 10s4 5.684 4 8.211C20 20.304 18.209 22 16 22s-4-1.697-4-3.789z"/></symbol><symbol id="icon-play" viewBox="0 0 24 24"><path d="M12 20.016q3.281 0 5.648-2.367t2.367-5.648-2.367-5.648T12 3.986 6.352 6.353t-2.367 5.648 2.367 5.648T12 20.016zm0-18q4.125 0 7.055 2.93t2.93 7.055-2.93 7.055T12 21.986t-7.055-2.93-2.93-7.055 2.93-7.055T12 2.016zM9.984 16.5v-9l6 4.5z"/></symbol><symbol id="icon-pause" viewBox="0 0 24 24"><path d="M12.984 15.984V8.015H15v7.969h-2.016zM12 20.016q3.281 0 5.648-2.367t2.367-5.648-2.367-5.648T12 3.986 6.352 6.353t-2.367 5.648 2.367 5.648T12 20.016zm0-18q4.125 0 7.055 2.93t2.93 7.055-2.93 7.055T12 21.986t-7.055-2.93-2.93-7.055 2.93-7.055T12 2.016zM9 15.984V8.015h2.016v7.969H9z"/></symbol><symbol id="icon-volume_up" viewBox="0 0 24 24"><path d="M14.016 3.234q3.047.656 5.016 3.117t1.969 5.648-1.969 5.648-5.016 3.117v-2.063q2.203-.656 3.586-2.484t1.383-4.219-1.383-4.219-3.586-2.484V3.232zM16.5 12q0 2.813-2.484 4.031V7.968q1.031.516 1.758 1.688T16.501 12zM3 9h3.984L12 3.984v16.031l-5.016-5.016H3v-6z"/></symbol><symbol id="icon-volume_down" viewBox="0 0 24 24"><path d="M5.016 9H9l5.016-5.016v16.031L9 14.999H5.016v-6zm13.5 3q0 2.766-2.531 4.031V7.968q1.031.516 1.781 1.711t.75 2.32z"/></symbol><symbol id="icon-volume_off" viewBox="0 0 24 24"><path d="M12 3.984v4.219L9.891 6.094zM4.266 3 21 19.734 19.734 21l-2.063-2.063q-1.547 1.313-3.656 1.828v-2.063q1.172-.328 2.25-1.172l-4.266-4.266v6.75l-5.016-5.016H2.999v-6h4.734L2.999 4.264zm14.718 9q0-2.391-1.383-4.219t-3.586-2.484V3.234q3.047.656 5.016 3.117T21 11.999q0 2.203-1.031 4.172l-1.5-1.547q.516-1.266.516-2.625zM16.5 12q0 .422-.047.609l-2.438-2.438V7.968q1.031.516 1.758 1.688T16.5 12z"/></symbol><symbol id="icon-alarms" viewBox="0 0 24 24"><path d="M12 20.016q2.906 0 4.945-2.063t2.039-4.969-2.039-4.945T12 6 7.055 8.039t-2.039 4.945 2.039 4.969T12 20.016zm0-16.032q3.75 0 6.375 2.625T21 12.984t-2.625 6.375T12 21.984t-6.375-2.625T3 12.984t2.625-6.375T12 3.984zm.516 4.032v5.297l3.984 2.391-.797 1.219-4.688-2.906v-6h1.5zM7.922 3.422 3.281 7.219l-1.266-1.5 4.594-3.797zm14.062 2.297-1.266 1.5-4.641-3.938 1.313-1.5z"/></symbol><symbol id="icon-add_alarm" viewBox="0 0 24 24"><path d="M12.984 9v3h3v2.016h-3v3h-1.969v-3h-3V12h3V9h1.969zM12 20.016q2.906 0 4.945-2.063t2.039-4.969-2.039-4.945T12 6 7.055 8.039t-2.039 4.945 2.039 4.969T12 20.016zm0-16.032q3.75 0 6.375 2.648T21 12.984t-2.625 6.352T12 21.984t-6.375-2.648T3 12.984t2.625-6.352T12 3.984zm9.984 1.735-1.266 1.547-4.594-3.891 1.266-1.5zM7.875 3.375 3.281 7.219l-1.266-1.5 4.594-3.844z"/></symbol><symbol id="icon-compass2" viewBox="0 0 32 32"><path d="M16.5 29C9.596 29 4 23.404 4 16.5S9.596 4 16.5 4 29 9.596 29 16.5 23.404 29 16.5 29zm0-1C22.851 28 28 22.851 28 16.5S22.851 5 16.5 5 5 10.149 5 16.5 10.149 28 16.5 28zm1.768-9.732c-1.768 1.768-8.485 4.95-8.485 4.95s3.182-6.718 4.95-8.485c1.768-1.768 8.485-4.95 8.485-4.95s-3.182 6.717-4.95 8.485zm-2.829-.707a1.5 1.5 0 1 0 2.121-2.12 1.5 1.5 0 0 0-2.121 2.12zM16.5 6c-.276 0-.5.215-.5.49v3.019a.5.5 0 0 0 .5.49c.276 0 .5-.215.5-.49V6.49a.5.5 0 0 0-.5-.49zm10.543 10.543c0-.276-.215-.5-.49-.5h-3.019a.5.5 0 0 0-.49.5c0 .276.215.5.49.5h3.019a.5.5 0 0 0 .49-.5zM16.5 27.087c.276 0 .5-.215.5-.49v-3.019a.5.5 0 0 0-.5-.49c-.276 0-.5.215-.5.49v3.019a.5.5 0 0 0 .5.49zM5.957 16.543c0 .276.215.5.49.5h3.019a.5.5 0 0 0 .49-.5c0-.276-.215-.5-.49-.5H6.447a.5.5 0 0 0-.49.5z"/></symbol><symbol id="icon-temperature-feels-like" viewBox="0 0 32 32"><path d="M26 30h-4a2.006 2.006 0 0 1-2-2v-7a2.006 2.006 0 0 1-2-2v-6.054A2.947 2.947 0 0 1 21.004 10h-.003 6l.054-.001a2.947 2.947 0 0 1 2.947 2.947l-.001.057V13v6a2.006 2.006 0 0 1-2 2v7a2.006 2.006 0 0 1-2 2zm-5-18a.945.945 0 0 0-1 1.003V13v6h2v9h4v-9h2v-6a.945.945 0 0 0-1.003-1H27zM24 9a4 4 0 1 1 4-4 4.013 4.013 0 0 1-3.999 4H24zm0-6a2 2 0 1 0 2 2 2.006 2.006 0 0 0-2-2zM10 20.184V12H8v8.184c-1.175.424-2 1.53-2 2.828a3 3 0 1 0 4.021-2.822L10 20.183z"/><path d="M9 30h-.007a6.993 6.993 0 0 1-4.992-11.89L4 18.111V7a5 5 0 0 1 10 0v11.111A6.993 6.993 0 0 1 9.007 30H9zM9 4a3.004 3.004 0 0 0-3 3v11.984l-.332.298a5 5 0 1 0 6.669.004l-.005-.004-.332-.298V7.001a3.004 3.004 0 0 0-3-3z"/></symbol><symbol id="icon-moon" viewBox="0 0 32 32"><path d="M24.633 22.184c-8.188 0-14.82-6.637-14.82-14.82 0-2.695.773-5.188 2.031-7.363C5.02 1.969 0 8.188 0 15.645 0 24.676 7.32 32 16.352 32c7.457 0 13.68-5.023 15.648-11.844-2.18 1.254-4.672 2.028-7.367 2.028z"/></symbol><symbol id="icon-sun" viewBox="0 0 32 32"><path d="M16.529 22a5.5 5.5 0 1 0 0-11 5.5 5.5 0 1 0 0 11zm0-15c-.276 0-.5.216-.5.495v2.009c0 .274.232.495.5.495.276 0 .5-.216.5-.495V7.495a.502.502 0 0 0-.5-.495zm6.738 2.791a.494.494 0 0 0-.704-.003l-1.421 1.421a.504.504 0 0 0 .003.704.494.494 0 0 0 .704.003l1.421-1.421a.504.504 0 0 0-.003-.704zm2.791 6.738c0-.276-.216-.5-.495-.5h-2.009a.502.502 0 0 0-.495.5c0 .276.216.5.495.5h2.009a.502.502 0 0 0 .495-.5zm-2.791 6.738a.494.494 0 0 0 .003-.704l-1.421-1.421a.504.504 0 0 0-.704.003.494.494 0 0 0-.003.704l1.421 1.421a.504.504 0 0 0 .704-.003zm-6.738 2.791c.276 0 .5-.216.5-.495v-2.009a.502.502 0 0 0-.5-.495c-.276 0-.5.216-.5.495v2.009c0 .274.232.495.5.495zm-6.738-2.791a.494.494 0 0 0 .704.003l1.421-1.421a.504.504 0 0 0-.003-.704.494.494 0 0 0-.704-.003l-1.421 1.421a.504.504 0 0 0 .003.704zM7 16.529c0 .276.216.5.495.5h2.009a.502.502 0 0 0 .495-.5c0-.276-.216-.5-.495-.5H7.495a.502.502 0 0 0-.495.5zm2.791-6.738a.494.494 0 0 0-.003.704l1.421 1.421a.504.504 0 0 0 .704-.003.494.494 0 0 0 .003-.704l-1.421-1.421a.504.504 0 0 0-.704.003z"/></symbol><symbol id="icon-settings" viewBox="0 0 24 24"><path d="M12 15.516q1.453 0 2.484-1.031t1.031-2.484-1.031-2.484T12 8.486 9.516 9.517t-1.031 2.484 1.031 2.484T12 15.516zm7.453-2.532 2.109 1.641q.328.234.094.656L19.64 18.75q-.188.328-.609.188l-2.484-.984q-.984.703-1.688.984l-.375 2.625q-.094.422-.469.422H9.984q-.375 0-.469-.422l-.375-2.625q-.891-.375-1.688-.984l-2.484.984q-.422.141-.609-.188l-2.016-3.469q-.234-.422.094-.656l2.109-1.641q-.047-.328-.047-.984t.047-.984L2.437 9.375q-.328-.234-.094-.656L4.359 5.25q.188-.328.609-.188l2.484.984q.984-.703 1.688-.984l.375-2.625q.094-.422.469-.422h4.031q.375 0 .469.422l.375 2.625q.891.375 1.688.984l2.484-.984q.422-.141.609.188l2.016 3.469q.234.422-.094.656l-2.109 1.641q.047.328.047.984t-.047.984z"/></symbol></defs></svg>